<svg xmlns="http://www.w3.org/2000/svg" width="800" height="600" data-software-used-string="@tscircuit/core@0.0.1234"><style></style><rect class="boundary" x="0" y="0" fill="#000" width="800" height="600" data-type="pcb_background" data-pcb-layer="global"/><rect class="pcb-boundary" fill="none" stroke="#fff" stroke-width="0.3" x="127.27272727272725" y="27.272727272727252" width="545.4545454545455" height="545.4545454545455" data-type="pcb_boundary" data-pcb-layer="global"/><path class="pcb-board" d="M 127.27272727272725 572.7272727272727 L 672.7272727272727 572.7272727272727 L 672.7272727272727 27.272727272727252 L 127.27272727272725 27.272727272727252 Z" fill="none" stroke="rgba(255, 255, 255, 0.5)" stroke-width="2.7272727272727275" data-type="pcb_board" data-pcb-layer="board"/><rect class="pcb-pad" fill="rgb(200, 52, 52)" x="280.09445090909276" y="354.5456918181797" width="9.35458909090909" height="47.22252545454546" rx="4.677294545454545" ry="4.677294545454545" data-type="pcb_smtpad" data-pcb-layer="top"/><rect class="pcb-pad" fill="rgb(200, 52, 52)" x="297.8213418181809" y="354.5456918181797" width="9.35458909090909" height="47.22252545454546" rx="4.677294545454545" ry="4.677294545454545" data-type="pcb_smtpad" data-pcb-layer="top"/><rect class="pcb-pad" fill="rgb(200, 52, 52)" x="315.54823272726907" y="354.5456918181797" width="9.35458909090909" height="47.22252545454546" rx="4.677294545454545" ry="4.677294545454545" data-type="pcb_smtpad" data-pcb-layer="top"/><rect class="pcb-pad" fill="rgb(200, 52, 52)" x="333.2751236363634" y="354.5456918181797" width="9.35458909090909" height="47.22252545454546" rx="4.677294545454545" ry="4.677294545454545" data-type="pcb_smtpad" data-pcb-layer="top"/><rect class="pcb-pad" fill="rgb(200, 52, 52)" x="351.0020145454516" y="354.5456918181797" width="9.35458909090909" height="47.22252545454546" rx="4.677294545454545" ry="4.677294545454545" data-type="pcb_smtpad" data-pcb-layer="top"/><rect class="pcb-pad" fill="rgb(200, 52, 52)" x="368.7289054545459" y="354.5456918181797" width="9.35458909090909" height="47.22252545454546" rx="4.677294545454545" ry="4.677294545454545" data-type="pcb_smtpad" data-pcb-layer="top"/><rect class="pcb-pad" fill="rgb(200, 52, 52)" x="386.46272363636245" y="354.5456918181797" width="9.35458909090909" height="47.22252545454546" rx="4.677294545454545" ry="4.677294545454545" data-type="pcb_smtpad" data-pcb-layer="top"/><rect class="pcb-pad" fill="rgb(200, 52, 52)" x="404.1896145454568" y="354.5456918181797" width="9.35458909090909" height="47.22252545454546" rx="4.677294545454545" ry="4.677294545454545" data-type="pcb_smtpad" data-pcb-layer="top"/><rect class="pcb-pad" fill="rgb(200, 52, 52)" x="421.91650545454496" y="354.5456918181797" width="9.35458909090909" height="47.22252545454546" rx="4.677294545454545" ry="4.677294545454545" data-type="pcb_smtpad" data-pcb-layer="top"/><rect class="pcb-pad" fill="rgb(200, 52, 52)" x="439.6433963636362" y="354.5456918181797" width="9.35458909090909" height="47.22252545454546" rx="4.677294545454545" ry="4.677294545454545" data-type="pcb_smtpad" data-pcb-layer="top"/><rect class="pcb-pad" fill="rgb(200, 52, 52)" x="457.37028727272747" y="354.5456918181797" width="9.35458909090909" height="47.22252545454546" rx="4.677294545454545" ry="4.677294545454545" data-type="pcb_smtpad" data-pcb-layer="top"/><rect class="pcb-pad" fill="rgb(200, 52, 52)" x="475.0971781818187" y="354.5456918181797" width="9.35458909090909" height="47.22252545454546" rx="4.677294545454545" ry="4.677294545454545" data-type="pcb_smtpad" data-pcb-layer="top"/><rect class="pcb-pad" fill="rgb(200, 52, 52)" x="492.82406909090685" y="354.5456918181797" width="9.35458909090909" height="47.22252545454546" rx="4.677294545454545" ry="4.677294545454545" data-type="pcb_smtpad" data-pcb-layer="top"/><rect class="pcb-pad" fill="rgb(200, 52, 52)" x="510.550959999995" y="354.5456918181797" width="9.35458909090909" height="47.22252545454546" rx="4.677294545454545" ry="4.677294545454545" data-type="pcb_smtpad" data-pcb-layer="top"/><rect class="pcb-pad" fill="rgb(200, 52, 52)" x="280.09445090909276" y="198.23178272727176" width="9.35458909090909" height="47.22252545454546" rx="4.677294545454545" ry="4.677294545454545" data-type="pcb_smtpad" data-pcb-layer="top"/><rect class="pcb-pad" fill="rgb(200, 52, 52)" x="297.8213418181809" y="198.23178272727176" width="9.35458909090909" height="47.22252545454546" rx="4.677294545454545" ry="4.677294545454545" data-type="pcb_smtpad" data-pcb-layer="top"/><rect class="pcb-pad" fill="rgb(200, 52, 52)" x="315.54823272726907" y="198.23178272727176" width="9.35458909090909" height="47.22252545454546" rx="4.677294545454545" ry="4.677294545454545" data-type="pcb_smtpad" data-pcb-layer="top"/><rect class="pcb-pad" fill="rgb(200, 52, 52)" x="333.2751236363634" y="198.23178272727176" width="9.35458909090909" height="47.22252545454546" rx="4.677294545454545" ry="4.677294545454545" data-type="pcb_smtpad" data-pcb-layer="top"/><rect class="pcb-pad" fill="rgb(200, 52, 52)" x="351.0020145454516" y="198.23178272727176" width="9.35458909090909" height="47.22252545454546" rx="4.677294545454545" ry="4.677294545454545" data-type="pcb_smtpad" data-pcb-layer="top"/><rect class="pcb-pad" fill="rgb(200, 52, 52)" x="368.7289054545459" y="198.23178272727176" width="9.35458909090909" height="47.22252545454546" rx="4.677294545454545" ry="4.677294545454545" data-type="pcb_smtpad" data-pcb-layer="top"/><rect class="pcb-pad" fill="rgb(200, 52, 52)" x="386.46272363636245" y="198.23178272727176" width="9.35458909090909" height="47.22252545454546" rx="4.677294545454545" ry="4.677294545454545" data-type="pcb_smtpad" data-pcb-layer="top"/><rect class="pcb-pad" fill="rgb(200, 52, 52)" x="404.1896145454568" y="198.23178272727176" width="9.35458909090909" height="47.22252545454546" rx="4.677294545454545" ry="4.677294545454545" data-type="pcb_smtpad" data-pcb-layer="top"/><rect class="pcb-pad" fill="rgb(200, 52, 52)" x="421.91650545454496" y="198.23178272727176" width="9.35458909090909" height="47.22252545454546" rx="4.677294545454545" ry="4.677294545454545" data-type="pcb_smtpad" data-pcb-layer="top"/><rect class="pcb-pad" fill="rgb(200, 52, 52)" x="439.6433963636362" y="198.23178272727176" width="9.35458909090909" height="47.22252545454546" rx="4.677294545454545" ry="4.677294545454545" data-type="pcb_smtpad" data-pcb-layer="top"/><rect class="pcb-pad" fill="rgb(200, 52, 52)" x="457.37028727272747" y="198.23178272727176" width="9.35458909090909" height="47.22252545454546" rx="4.677294545454545" ry="4.677294545454545" data-type="pcb_smtpad" data-pcb-layer="top"/><rect class="pcb-pad" fill="rgb(200, 52, 52)" x="475.0971781818187" y="198.23178272727176" width="9.35458909090909" height="47.22252545454546" rx="4.677294545454545" ry="4.677294545454545" data-type="pcb_smtpad" data-pcb-layer="top"/><rect class="pcb-pad" fill="rgb(200, 52, 52)" x="492.82406909090685" y="198.23178272727176" width="9.35458909090909" height="47.22252545454546" rx="4.677294545454545" ry="4.677294545454545" data-type="pcb_smtpad" data-pcb-layer="top"/><rect class="pcb-pad" fill="rgb(200, 52, 52)" x="510.550959999995" y="198.23178272727176" width="9.35458909090909" height="47.22252545454546" rx="4.677294545454545" ry="4.677294545454545" data-type="pcb_smtpad" data-pcb-layer="top"/><path class="pcb-silkscreen pcb-silkscreen-top" d="M 265.64900909090943 348.3073363636384 L 265.64900909090943 251.6857363636363 L 534.3509909090906 251.6857363636363 L 534.3509909090906 348.3073363636384 L 265.64900909090943 348.3073363636384 Z" fill="none" stroke="#f2eda1" stroke-width="4.156363636363636" stroke-linecap="round" stroke-linejoin="round" data-pcb-component-id="pcb_component_0" data-pcb-silkscreen-path-id="pcb_silkscreen_path_0" data-type="pcb_silkscreen_path" data-pcb-layer="top"/></svg>